<svg xmlns="http://www.w3.org/2000/svg" version="1.1" xmlns:xlink="http://www.w3.org/1999/xlink" xmlns:svgjs="http://svgjs.dev/svgjs" width="1000" height="1000" viewBox="0 0 1000 1000"><g transform="matrix(1,0,0,1,-0.14221556886212738,-0.14221556886229791)"><svg viewBox="0 0 334 334" data-background-color="#ffffff" preserveAspectRatio="xMidYMid meet" height="1000" width="1000" xmlns="http://www.w3.org/2000/svg" xmlns:xlink="http://www.w3.org/1999/xlink"><g id="tight-bounds" transform="matrix(1,0,0,1,0.04749999999998522,0.04750000000001364)"><svg viewBox="0 0 333.90454557049503 333.90454557049503" height="333.90454557049503" width="333.90454557049503"><g><svg></svg></g><g><svg viewBox="0 0 333.90454557049503 333.90454557049503" height="333.90454557049503" width="333.90454557049503"><g><path d="M0 166.952c0-92.205 74.747-166.952 166.952-166.952 92.205 0 166.952 74.747 166.953 166.952 0 92.205-74.747 166.952-166.953 166.953-92.205 0-166.952-74.747-166.952-166.953zM166.952 316.63c82.665 0 149.677-67.013 149.678-149.678 0-82.665-67.013-149.677-149.678-149.677-82.665 0-149.677 67.013-149.677 149.677 0 82.665 67.013 149.677 149.677 149.678z" data-fill-palette-color="tertiary" fill="#ffffff" stroke="transparent"></path><ellipse rx="160.27418187383762" ry="160.27418187383762" cx="166.95227278524752" cy="166.95227278524752" fill="#ffffff" stroke="transparent" stroke-width="0" fill-opacity="1" data-fill-palette-color="tertiary"></ellipse></g><g transform="matrix(1,0,0,1,101.51633142941424,71.17305217166896)"><svg viewBox="0 0 130.87188271166656 191.55844122715712" height="191.55844122715712" width="130.87188271166656"><g><svg viewBox="0 0 130.87188271166656 191.55844122715712" height="191.55844122715712" width="130.87188271166656"><g><svg viewBox="0 0 130.87188271166656 191.55844122715712" height="191.55844122715712" width="130.87188271166656"><g><svg viewBox="0 0 130.87188271166656 191.55844122715712" height="191.55844122715712" width="130.87188271166656"><g id="textblocktransform"><svg viewBox="0 0 130.87188271166656 191.55844122715712" height="191.55844122715712" width="130.87188271166656" id="textblock"><g><svg viewBox="0 0 130.87188271166656 191.55844122715712" height="191.55844122715712" width="130.87188271166656"><g transform="matrix(1,0,0,1,0,0)"><svg width="130.87188271166656" viewBox="1.7999999523162842 -35.54999923706055 24.80000114440918 36.29999923706055" height="191.55844122715712" data-palette-color="#ffffff"><path d="M13.65 0.75Q7.8 0.75 4.8-1.23 1.8-3.2 1.8-6.35L1.8-6.35Q1.8-7.95 2.75-8.97 3.7-10 5.85-10L5.85-10Q6.75-10 7.3-9.9L7.3-9.9Q7.15-9.25 7.15-8.55L7.15-8.55Q7.15-8.05 7.25-7.35L7.25-7.35Q7.6-4.95 9.45-3.3 11.3-1.65 14.6-1.65L14.6-1.65Q17.05-1.65 18.65-2.98 20.25-4.3 20.25-6.85L20.25-6.85Q20.25-9.25 18.68-10.88 17.1-12.5 13.25-14.65L13.25-14.65Q9.6-16.75 7.5-18.32 5.4-19.9 4.23-21.93 3.05-23.95 3.05-26.7L3.05-26.7Q3.05-31.2 6.38-33.38 9.7-35.55 14.85-35.55L14.85-35.55Q19.65-35.55 22.55-34.05 25.45-32.55 25.45-29.7L25.45-29.7Q25.45-28.35 24.68-27.53 23.9-26.7 22.1-26.65L22.1-26.65Q21.9-26.6 21.4-26.6L21.4-26.6Q20.95-26.6 20.25-26.7L20.25-26.7Q20.35-28.35 19.85-29.6L19.85-29.6Q19.45-31.25 18-32.27 16.55-33.3 14.1-33.3L14.1-33.3Q12.1-33.3 10.63-32.3 9.15-31.3 9.15-29L9.15-29Q9.15-27.4 9.85-26.15 10.55-24.9 12.2-23.65 13.85-22.4 16.9-20.7L16.9-20.7Q19.9-19.05 21.9-17.57 23.9-16.1 25.25-14 26.6-11.9 26.6-9.1L26.6-9.1Q26.6-6.35 25.18-4.13 23.75-1.9 20.83-0.58 17.9 0.75 13.65 0.75L13.65 0.75Z" opacity="1" transform="matrix(1,0,0,1,0,0)" fill="#000000" class="undefined-text-0" data-fill-palette-color="quaternary" id="text-0"></path></svg></g></svg></g></svg></g></svg></g><g></g></svg></g></svg></g></svg></g></svg></g><defs></defs></svg><rect width="333.90454557049503" height="333.90454557049503" fill="none" stroke="none" visibility="hidden"></rect></g></svg></g></svg>